# xmcd
#
# Track frame offsets:
#	150
#	18171
#	33773
#	50646
#	68689
#	86565
#	107672
#	122984
#	139495
#	161076
#	179926
#	196074
#	214193
#	230006
#	249826
#	265197
#	279422
#	296763
#	313292
#	329425
#	345297
#
# Disc length: 4783 seconds
#
# Revision: 0
# Processed by: cddbd v1.4PL0 Copyright (c) Steve Scherf et al.
# Submitted via: EasyCDDAExtractor 4.5.0.1
#
DISCID=4012ad15
DTITLE=Goca Trzan - Peta Strana Sveta
DYEAR=1900
DGENRE=Pop
TTITLE0=Iz pocetka iz inata
TTITLE1=Peta strana sveta
TTITLE2=Kad kazem ne
TTITLE3=Daleko
TTITLE4=Krila andjela
TTITLE5=Korak do dna
TTITLE6=Oglas
TTITLE7=Vise manje
TTITLE8=Sebi dovoljna
TTITLE9=Ne verujem
TTITLE10=Lovac u zitu
TTITLE11=Kad ponos ubije ljubav iz nehata
TTITLE12=Vruce i otrovno
TTITLE13=Nemirni koraci
TTITLE14=Konobarica
TTITLE15=Stoperka
TTITLE16=Jos jedan krug
TTITLE17=Zagrli
TTITLE18=Ne zelim da se promenim
TTITLE19=Dostana
TTITLE20=Ako je Bog dozvolio
EXTD=
EXTT0=
EXTT1=
EXTT2=
EXTT3=
EXTT4=
EXTT5=
EXTT6=
EXTT7=
EXTT8=
EXTT9=
EXTT10=
EXTT11=
EXTT12=
EXTT13=
EXTT14=
EXTT15=
EXTT16=
EXTT17=
EXTT18=
EXTT19=
EXTT20=
PLAYORDER=
